<svg xmlns="http://www.w3.org/2000/svg" width="1740" height="1180" viewBox="0 0 1740 1180"><defs><marker id="aB" markerWidth="10" markerHeight="10" refX="8" refY="3.2" orient="auto"><path d="M0,0 L8,3.2 L0,6.4 Z" fill="#0078D4"/></marker><marker id="aR" markerWidth="10" markerHeight="10" refX="8" refY="3.2" orient="auto"><path d="M0,0 L8,3.2 L0,6.4 Z" fill="#E8483B"/></marker><marker id="aT" markerWidth="10" markerHeight="10" refX="8" refY="3.2" orient="auto"><path d="M0,0 L8,3.2 L0,6.4 Z" fill="#00A2A6"/></marker><marker id="aG" markerWidth="10" markerHeight="10" refX="8" refY="3.2" orient="auto"><path d="M0,0 L8,3.2 L0,6.4 Z" fill="#7A7A7A"/></marker></defs><rect width="1740" height="1180" fill="#FFFFFF"/><text x="40" y="42" font-family="DejaVu Sans" font-size="26" font-weight="bold" fill="#003A6B">Confidant — Azure Solution Architecture</text><text x="40" y="68" font-family="DejaVu Sans" font-size="14" fill="#7A7A7A">Subscription: goneset (0f94670d-1eff-45a0-a2f8-8215eb135886)  ·  Region: West Europe  ·  Production (two planes: persistent control + ephemeral sandbox)</text><rect x="34" y="90" width="1672" height="1030" rx="12" fill="#FBFDFF" stroke="#005BA1" stroke-width="2" stroke-dasharray="2 0"/><g transform="translate(46,100) scale(0.625)"><rect x="4" y="8" width="40" height="32" rx="4" fill="#0078D4"/><rect x="4" y="8" width="40" height="10" rx="4" fill="#005BA1"/><circle cx="15" cy="27" r="6" fill="none" stroke="#fff" stroke-width="2.6"/><path d="M20 27 h16 M31 27 v6 M36 27 v5" stroke="#fff" stroke-width="2.6" fill="none" stroke-linecap="round"/></g><text x="84" y="116" font-family="DejaVu Sans" font-size="16" font-weight="bold" fill="#0B4C8C">Subscription — goneset</text><text x="84" y="134" font-family="DejaVu Sans" font-size="12.5" fill="#7A7A7A">West Europe</text><rect x="560" y="112" width="1080" height="86" rx="10" fill="#EEF4FB" stroke="#C7D6E6" stroke-width="1.6"/><text x="576" y="132" font-family="DejaVu Sans" font-size="13.5" font-weight="bold" fill="#005BA1">Internet / Users  (HTTPS 443)</text><g transform="translate(610,146) scale(0.8333333333333334)"><circle cx="24" cy="16" r="9" fill="#0B4C8C"/><path d="M8 42 c2 -13 30 -13 32 0 z" fill="#0B4C8C"/></g><text x="660" y="163" font-family="DejaVu Sans" font-size="14" font-weight="bold" fill="#003A6B">Client</text><text x="660" y="181" font-family="DejaVu Sans" font-size="11.5" fill="#7A7A7A">single invited individual · browser</text><g transform="translate(1150,146) scale(0.8333333333333334)"><circle cx="24" cy="16" r="9" fill="#0B4C8C"/><path d="M8 42 c2 -13 30 -13 32 0 z" fill="#0B4C8C"/></g><text x="1200" y="163" font-family="DejaVu Sans" font-size="14" font-weight="bold" fill="#003A6B">Provider</text><text x="1200" y="181" font-family="DejaVu Sans" font-size="11.5" fill="#7A7A7A">clinic / bank / advisory · browser</text><rect x="60" y="240" width="400" height="250" rx="12" fill="#F4F9FE" stroke="#0078D4" stroke-width="2"/><g transform="translate(72,250) scale(0.625)"><path d="M24 5 L42 14 L42 34 L24 43 L6 34 L6 14 Z" fill="none" stroke="#0078D4" stroke-width="2.6" stroke-dasharray="4 3"/><path d="M24 5 L42 14 L24 23 L6 14 Z" fill="#32BEDD" opacity="0.55"/><path d="M24 23 L24 43" stroke="#0078D4" stroke-width="1.6" stroke-dasharray="3 3"/></g><text x="110" y="266" font-family="DejaVu Sans" font-size="16" font-weight="bold" fill="#0B4C8C">confidant-landingpage-rg</text><text x="110" y="284" font-family="DejaVu Sans" font-size="12.5" fill="#7A7A7A">Public entry &amp; messaging</text><rect x="78" y="296" width="364" height="66" rx="8" fill="#FFFFFF" stroke="#D5DFEA" stroke-width="1.4"/><rect x="78" y="296" width="5" height="66" rx="2.5" fill="#0078D4"/><g transform="translate(92,306) scale(0.9583333333333334)"><rect x="5" y="8" width="38" height="30" rx="3" fill="#0078D4"/><rect x="5" y="8" width="38" height="8" rx="3" fill="#005BA1"/><g fill="#50E6FF"><circle cx="10" cy="12" r="1.6"/><circle cx="15" cy="12" r="1.6"/></g><path d="M19 22 l-5 5 l5 5 M29 22 l5 5 l-5 5" stroke="#fff" stroke-width="2.6" fill="none" stroke-linecap="round"/></g><text x="150" y="327.25" font-family="DejaVu Sans" font-size="14" font-weight="bold" fill="#003A6B">Static Web App</text><text x="150" y="342.75" font-family="DejaVu Sans" font-size="11.5" fill="#7A7A7A">goneset-swa (landing/marketing)</text><rect x="78" y="372" width="364" height="66" rx="8" fill="#FFFFFF" stroke="#D5DFEA" stroke-width="1.4"/><rect x="78" y="372" width="5" height="66" rx="2.5" fill="#00A2A6"/><g transform="translate(92,382) scale(0.9583333333333334)"><path d="M6 10 h36 a3 3 0 0 1 3 3 v16 a3 3 0 0 1 -3 3 H20 l-8 8 v-8 H6 a3 3 0 0 1 -3 -3 V13 a3 3 0 0 1 3 -3 z" fill="#0078D4"/><g fill="#fff"><circle cx="16" cy="21" r="2.4"/><circle cx="24" cy="21" r="2.4"/><circle cx="32" cy="21" r="2.4"/></g></g><text x="150" y="403.25" font-family="DejaVu Sans" font-size="14" font-weight="bold" fill="#003A6B">Communication Services</text><text x="150" y="418.75" font-family="DejaVu Sans" font-size="11.5" fill="#7A7A7A">confidant-acs (verification email)</text><rect x="60" y="512" width="400" height="158" rx="12" fill="#F7F7F9" stroke="#7A7A7A" stroke-width="2"/><g transform="translate(72,522) scale(0.625)"><path d="M24 5 L42 14 L42 34 L24 43 L6 34 L6 14 Z" fill="none" stroke="#0078D4" stroke-width="2.6" stroke-dasharray="4 3"/><path d="M24 5 L42 14 L24 23 L6 14 Z" fill="#32BEDD" opacity="0.55"/><path d="M24 23 L24 43" stroke="#0078D4" stroke-width="1.6" stroke-dasharray="3 3"/></g><text x="110" y="538" font-family="DejaVu Sans" font-size="16" font-weight="bold" fill="#555">confidant-rg  (legacy)</text><text x="110" y="556" font-family="DejaVu Sans" font-size="12.5" fill="#7A7A7A">Unmovable EmailServices</text><rect x="78" y="566" width="364" height="66" rx="8" fill="#FFFFFF" stroke="#D5DFEA" stroke-width="1.4"/><rect x="78" y="566" width="5" height="66" rx="2.5" fill="#7A7A7A"/><g transform="translate(92,576) scale(0.9583333333333334)"><rect x="4" y="10" width="40" height="28" rx="4" fill="#0078D4"/><path d="M6 13 L24 27 L42 13" fill="none" stroke="#fff" stroke-width="2.6"/></g><text x="150" y="597.25" font-family="DejaVu Sans" font-size="14" font-weight="bold" fill="#003A6B">Email Comm. Service</text><text x="150" y="612.75" font-family="DejaVu Sans" font-size="11.5" fill="#7A7A7A">confidant-email (SPF/DKIM open item)</text><rect x="500" y="240" width="600" height="810" rx="12" fill="#EFF6FD" stroke="#0078D4" stroke-width="2"/><g transform="translate(512,250) scale(0.625)"><path d="M24 5 L42 14 L42 34 L24 43 L6 34 L6 14 Z" fill="none" stroke="#0078D4" stroke-width="2.6" stroke-dasharray="4 3"/><path d="M24 5 L42 14 L24 23 L6 14 Z" fill="#32BEDD" opacity="0.55"/><path d="M24 23 L24 43" stroke="#0078D4" stroke-width="1.6" stroke-dasharray="3 3"/></g><text x="550" y="266" font-family="DejaVu Sans" font-size="16" font-weight="bold" fill="#0B4C8C">confidant-core-rg — CONTROL PLANE</text><text x="550" y="284" font-family="DejaVu Sans" font-size="12.5" fill="#7A7A7A">Persistent · always-on</text><rect x="520" y="300" width="280" height="74" rx="8" fill="#FFFFFF" stroke="#D5DFEA" stroke-width="1.4"/><rect x="520" y="300" width="5" height="74" rx="2.5" fill="#0078D4"/><g transform="translate(534,314) scale(0.9583333333333334)"><rect x="6" y="4" width="36" height="40" rx="5" fill="#0078D4"/><path d="M27 9 L15 27 h8 l-3 12 L33 21 h-8 z" fill="#FFB900"/></g><text x="592" y="327.5" font-family="DejaVu Sans" font-size="14" font-weight="bold" fill="#003A6B">Azure Functions</text><text x="592" y="343" font-family="DejaVu Sans" font-size="11.5" fill="#7A7A7A">func-confidant-kcrrr5q7</text><text x="592" y="358.5" font-family="DejaVu Sans" font-size="11.5" fill="#7A7A7A">cleanup timer · dashboard</text><rect x="812" y="300" width="268" height="74" rx="8" fill="#FFFFFF" stroke="#D5DFEA" stroke-width="1.4"/><rect x="812" y="300" width="5" height="74" rx="2.5" fill="#00A2A6"/><g transform="translate(826,314) scale(0.9583333333333334)"><rect x="6" y="8" width="36" height="32" rx="4" fill="#00A2A6"/><rect x="6" y="8" width="36" height="9" rx="4" fill="#00787C"/><g stroke="#fff" stroke-width="2"><path d="M6 25 H42 M6 33 H42 M18 17 V40 M30 17 V40"/></g></g><text x="884" y="327.5" font-family="DejaVu Sans" font-size="14" font-weight="bold" fill="#003A6B">Table Storage</text><text x="884" y="343" font-family="DejaVu Sans" font-size="11.5" fill="#7A7A7A">stconfcorekcrrr5q7kmgj</text><text x="884" y="358.5" font-family="DejaVu Sans" font-size="11.5" fill="#7A7A7A">insights · sessions</text><rect x="520" y="388" width="180" height="82" rx="8" fill="#FFFFFF" stroke="#D5DFEA" stroke-width="1.4"/><rect x="520" y="388" width="5" height="82" rx="2.5" fill="#0078D4"/><g transform="translate(534,406) scale(0.9583333333333334)"><rect x="6" y="4" width="36" height="40" rx="5" fill="#0078D4"/><circle cx="20" cy="20" r="6" fill="none" stroke="#FFD400" stroke-width="3"/><path d="M24 23 L34 33 M31 30 l4 0 M28 27 l3 3" stroke="#FFD400" stroke-width="3" fill="none" stroke-linecap="round"/></g><text x="592" y="419.5" font-family="DejaVu Sans" font-size="14" font-weight="bold" fill="#003A6B">Key Vault</text><text x="592" y="435" font-family="DejaVu Sans" font-size="11.5" fill="#7A7A7A">cmk-gallery</text><text x="592" y="450.5" font-family="DejaVu Sans" font-size="11.5" fill="#7A7A7A">RSA-3072</text><rect x="710" y="388" width="185" height="82" rx="8" fill="#FFFFFF" stroke="#D5DFEA" stroke-width="1.4"/><rect x="710" y="388" width="5" height="82" rx="2.5" fill="#0078D4"/><g transform="translate(724,406) scale(0.9583333333333334)"><ellipse cx="24" cy="12" rx="16" ry="6" fill="#0078D4"/><path d="M8 12 V30 C8 33 15 36 24 36 C33 36 40 33 40 30 V12" fill="#005BA1"/><ellipse cx="24" cy="12" rx="16" ry="6" fill="#32BEDD"/><rect x="18" y="24" width="12" height="10" rx="2" fill="#FFD400"/><path d="M20 24 v-3 a4 4 0 0 1 8 0 v3" fill="none" stroke="#FFD400" stroke-width="2.4"/></g><text x="782" y="419.5" font-family="DejaVu Sans" font-size="14" font-weight="bold" fill="#003A6B">Disk Encryption</text><text x="782" y="435" font-family="DejaVu Sans" font-size="11.5" fill="#7A7A7A">des-confidant-</text><text x="782" y="450.5" font-family="DejaVu Sans" font-size="11.5" fill="#7A7A7A">gallery (CMK)</text><rect x="905" y="388" width="175" height="82" rx="8" fill="#FFFFFF" stroke="#D5DFEA" stroke-width="1.4"/><rect x="905" y="388" width="5" height="82" rx="2.5" fill="#0078D4"/><g transform="translate(919,406) scale(0.9583333333333334)"><rect x="4" y="10" width="30" height="24" rx="3" fill="#32BEDD"/><rect x="10" y="6" width="30" height="24" rx="3" fill="#0078D4"/><circle cx="19" cy="15" r="3" fill="#FFB900"/><path d="M13 27 l7 -8 l5 5 l4 -4 l6 7 z" fill="#fff"/></g><text x="977" y="419.5" font-family="DejaVu Sans" font-size="14" font-weight="bold" fill="#003A6B">Compute Gallery</text><text x="977" y="435" font-family="DejaVu Sans" font-size="11.5" fill="#7A7A7A">sandbox:1.0.0</text><text x="977" y="450.5" font-family="DejaVu Sans" font-size="11.5" fill="#7A7A7A">gold image</text><rect x="520" y="496" width="560" height="536" rx="12" fill="#F2FAFF" stroke="#32BEDD" stroke-width="2"/><g transform="translate(532,506) scale(0.625)"><g fill="#0078D4"><rect x="18" y="4" width="12" height="10" rx="2"/><rect x="4" y="34" width="12" height="10" rx="2"/><rect x="32" y="34" width="12" height="10" rx="2"/></g><path d="M24 14 L24 24 M24 24 L10 34 M24 24 L38 34" stroke="#32BEDD" stroke-width="2.4" fill="none"/><circle cx="24" cy="24" r="3.2" fill="#50E6FF"/></g><text x="570" y="522" font-family="DejaVu Sans" font-size="16" font-weight="bold" fill="#005BA1">vnet-confidant-core   10.20.0.0/16</text><text x="570" y="540" font-family="DejaVu Sans" font-size="12.5" fill="#7A7A7A">Isolated virtual network</text><rect x="540" y="556" width="520" height="116" rx="8" fill="#EAF6FF" fill-opacity="0.5" stroke="#32BEDD" stroke-width="1.6" stroke-dasharray="6 4"/><text x="552" y="576" font-family="DejaVu Sans" font-size="13" font-weight="bold" fill="#005BA1">snet-endpoints</text><text x="552" y="593" font-family="DejaVu Sans" font-size="11.5" fill="#7A7A7A">private access to storage</text><rect x="556" y="588" width="246" height="66" rx="8" fill="#FFFFFF" stroke="#D5DFEA" stroke-width="1.4"/><rect x="556" y="588" width="5" height="66" rx="2.5" fill="#32BEDD"/><g transform="translate(570,598) scale(0.9583333333333334)"><circle cx="12" cy="24" r="7" fill="#0078D4"/><circle cx="36" cy="24" r="7" fill="#32BEDD"/><path d="M19 24 H29" stroke="#0B4C8C" stroke-width="3"/><circle cx="12" cy="24" r="2.6" fill="#fff"/><circle cx="36" cy="24" r="2.6" fill="#fff"/></g><text x="628" y="619.25" font-family="DejaVu Sans" font-size="14" font-weight="bold" fill="#003A6B">Private Endpoint</text><text x="628" y="634.75" font-family="DejaVu Sans" font-size="11.5" fill="#7A7A7A">pe-…-table</text><rect x="812" y="588" width="232" height="66" rx="8" fill="#FFFFFF" stroke="#D5DFEA" stroke-width="1.4"/><rect x="812" y="588" width="5" height="66" rx="2.5" fill="#32BEDD"/><g transform="translate(826,598) scale(0.9583333333333334)"><circle cx="24" cy="24" r="18" fill="#0078D4"/><g stroke="#fff" stroke-width="1.8" fill="none"><ellipse cx="24" cy="24" rx="8" ry="18"/><path d="M6 24 H42 M9 14 H39 M9 34 H39"/></g></g><text x="884" y="619.25" font-family="DejaVu Sans" font-size="14" font-weight="bold" fill="#003A6B">Private DNS Zone</text><text x="884" y="634.75" font-family="DejaVu Sans" font-size="11.5" fill="#7A7A7A">privatelink.table.core</text><rect x="540" y="690" width="520" height="322" rx="8" fill="#FFF7EE" fill-opacity="0.5" stroke="#FFB900" stroke-width="1.6" stroke-dasharray="6 4"/><text x="552" y="710" font-family="DejaVu Sans" font-size="13" font-weight="bold" fill="#8a5a00">snet-sandbox</text><text x="552" y="727" font-family="DejaVu Sans" font-size="11.5" fill="#7A7A7A">ephemeral compute · NSG protected</text><rect x="558" y="722" width="484" height="58" rx="8" fill="#FFFFFF" stroke="#E7C58A" stroke-width="1.4"/><g transform="translate(566,728) scale(0.9166666666666666)"><path d="M24 4 L42 11 V24 C42 35 34 42 24 45 C14 42 6 35 6 24 V11 Z" fill="#0078D4"/><path d="M17 24 l5 5 l9 -11" stroke="#fff" stroke-width="3.4" fill="none" stroke-linecap="round" stroke-linejoin="round"/></g><text x="618" y="746" font-family="DejaVu Sans" font-size="14" font-weight="bold" fill="#003A6B">nsg-sandbox</text><text x="618" y="765" font-family="DejaVu Sans" font-size="11.5" fill="#7A7A7A">inbound 443 only · outbound denied (except DNS + ACME) · VM↔VM blocked</text><rect x="558" y="794" width="484" height="200" rx="8" fill="#FFFFFF" fill-opacity="0.6" stroke="#E7C58A" stroke-width="1.2" stroke-dasharray="4 3"/><text x="800" y="818" font-family="DejaVu Sans" font-size="12.5" fill="#7A7A7A" text-anchor="middle">Sandbox VM NIC lives here — VM resource in confidant-sandboxes-rg →</text><g transform="translate(776,836) scale(1)"><rect x="4" y="8" width="40" height="28" rx="3" fill="#0078D4"/><rect x="8" y="12" width="32" height="20" rx="1.5" fill="#eaf5ff"/><path d="M18 20 l8 4 l-8 4 z" fill="#0078D4"/><rect x="16" y="38" width="16" height="4" rx="2" fill="#0B4C8C"/></g><text x="800" y="910" font-family="DejaVu Sans" font-size="13" font-weight="bold" fill="#003A6B" text-anchor="middle">vm-confidant-&lt;id&gt;</text><text x="800" y="930" font-family="DejaVu Sans" font-size="11.5" fill="#7A7A7A" text-anchor="middle">Standard_E4s_v6 · CMK Premium OS disk</text><text x="800" y="948" font-family="DejaVu Sans" font-size="11.5" fill="#7A7A7A" text-anchor="middle">deleteOption: Delete</text><rect x="1140" y="240" width="560" height="810" rx="12" fill="#FFF8F0" stroke="#FFB900" stroke-width="2"/><g transform="translate(1152,250) scale(0.625)"><path d="M24 5 L42 14 L42 34 L24 43 L6 34 L6 14 Z" fill="none" stroke="#0078D4" stroke-width="2.6" stroke-dasharray="4 3"/><path d="M24 5 L42 14 L24 23 L6 14 Z" fill="#32BEDD" opacity="0.55"/><path d="M24 23 L24 43" stroke="#0078D4" stroke-width="1.6" stroke-dasharray="3 3"/></g><text x="1190" y="266" font-family="DejaVu Sans" font-size="16" font-weight="bold" fill="#8a5a00">confidant-sandboxes-rg — EPHEMERAL</text><text x="1190" y="284" font-family="DejaVu Sans" font-size="12.5" fill="#7A7A7A">0..2 concurrent · destroyed on close / 15-min idle</text><rect x="1162" y="300" width="516" height="726" rx="12" fill="#FFFFFF" stroke="#0078D4" stroke-width="2"/><g transform="translate(1178,312) scale(0.8333333333333334)"><rect x="4" y="8" width="40" height="28" rx="3" fill="#0078D4"/><rect x="8" y="12" width="32" height="20" rx="1.5" fill="#eaf5ff"/><path d="M18 20 l8 4 l-8 4 z" fill="#0078D4"/><rect x="16" y="38" width="16" height="4" rx="2" fill="#0B4C8C"/></g><text x="1226" y="330" font-family="DejaVu Sans" font-size="16" font-weight="bold" fill="#003A6B">Sandbox VM — Standard_E4s_v6</text><text x="1226" y="349" font-family="DejaVu Sans" font-size="12" fill="#7A7A7A">4 vCPU / 32 GB · isolated · runs the whole app + local model</text><rect x="1178" y="372" width="484" height="122" rx="8" fill="#F1F8E9" stroke="#5EA400" stroke-width="1.4"/><text x="1190" y="392" font-family="DejaVu Sans" font-size="12.5" font-weight="bold" fill="#5EA400">PRESENTATION / TLS INGRESS</text><rect x="1194" y="402" width="452" height="68" rx="6" fill="#FFFFFF" stroke="#CBD6E2" stroke-width="1.2"/><rect x="1194" y="402" width="4" height="68" rx="2" fill="#5EA400"/><text x="1208" y="434" font-family="DejaVu Sans" font-size="13" font-weight="bold" fill="#003A6B">Caddy 2 — TLS (ACME)</text><text x="1208" y="451" font-family="DejaVu Sans" font-size="11" fill="#7A7A7A">reverse proxy · HTTPS 443 on VM FQDN</text><rect x="1178" y="510" width="484" height="190" rx="8" fill="#EAF3FC" stroke="#0078D4" stroke-width="1.4"/><text x="1190" y="530" font-family="DejaVu Sans" font-size="12.5" font-weight="bold" fill="#0078D4">APPLICATION (backend logic)</text><rect x="1194" y="542" width="220" height="64" rx="6" fill="#FFFFFF" stroke="#CBD6E2" stroke-width="1.2"/><rect x="1194" y="542" width="4" height="64" rx="2" fill="#0078D4"/><text x="1208" y="572" font-family="DejaVu Sans" font-size="13" font-weight="bold" fill="#003A6B">Next.js 14</text><text x="1208" y="589" font-family="DejaVu Sans" font-size="11" fill="#7A7A7A">frontend (same-origin)</text><rect x="1426" y="542" width="220" height="64" rx="6" fill="#FFFFFF" stroke="#CBD6E2" stroke-width="1.2"/><rect x="1426" y="542" width="4" height="64" rx="2" fill="#0078D4"/><text x="1440" y="572" font-family="DejaVu Sans" font-size="13" font-weight="bold" fill="#003A6B">FastAPI</text><text x="1440" y="589" font-family="DejaVu Sans" font-size="11" fill="#7A7A7A">Python 3.12 · REST</text><rect x="1194" y="616" width="452" height="68" rx="6" fill="#FFFFFF" stroke="#CBD6E2" stroke-width="1.2"/><rect x="1194" y="616" width="4" height="68" rx="2" fill="#005BA1"/><text x="1208" y="648" font-family="DejaVu Sans" font-size="13" font-weight="bold" fill="#003A6B">llama.cpp — Qwen3-8B Q4_K_M</text><text x="1208" y="665" font-family="DejaVu Sans" font-size="11" fill="#7A7A7A">local inference · no external LLM egress</text><rect x="1178" y="716" width="484" height="292" rx="8" fill="#E9F6F6" stroke="#00A2A6" stroke-width="1.4"/><text x="1190" y="736" font-family="DejaVu Sans" font-size="12.5" font-weight="bold" fill="#00A2A6">DATA (on-VM, destroyed with VM)</text><rect x="1194" y="748" width="220" height="66" rx="6" fill="#FFFFFF" stroke="#CBD6E2" stroke-width="1.2"/><rect x="1194" y="748" width="4" height="66" rx="2" fill="#00A2A6"/><text x="1208" y="779" font-family="DejaVu Sans" font-size="13" font-weight="bold" fill="#003A6B">ChromaDB</text><text x="1208" y="796" font-family="DejaVu Sans" font-size="11" fill="#7A7A7A">vectors · MiniLM-L6</text><rect x="1426" y="748" width="220" height="66" rx="6" fill="#FFFFFF" stroke="#CBD6E2" stroke-width="1.2"/><rect x="1426" y="748" width="4" height="66" rx="2" fill="#00A2A6"/><text x="1440" y="779" font-family="DejaVu Sans" font-size="13" font-weight="bold" fill="#003A6B">SQLite</text><text x="1440" y="796" font-family="DejaVu Sans" font-size="11" fill="#7A7A7A">rooms · audit · insights</text><rect x="1194" y="826" width="452" height="66" rx="6" fill="#FFFFFF" stroke="#CBD6E2" stroke-width="1.2"/><rect x="1194" y="826" width="4" height="66" rx="2" fill="#6B4E9E"/><text x="1208" y="857" font-family="DejaVu Sans" font-size="13" font-weight="bold" fill="#003A6B">Managed Identity (DefaultAzureCredential)</text><text x="1208" y="874" font-family="DejaVu Sans" font-size="11" fill="#7A7A7A">keyless access to Table Storage via private endpoint</text><g transform="translate(1600,834) scale(0.9583333333333334)"><path d="M24 4 L40 10 V24 C40 34 33 40 24 44 C15 40 8 34 8 24 V10 Z" fill="#0078D4"/><circle cx="24" cy="20" r="5" fill="#fff"/><path d="M15 34 c2 -7 16 -7 18 0 z" fill="#fff"/></g><polyline points="636,186 636,220 260,260 260,296" fill="none" stroke="#0078D4" stroke-width="2" marker-end="url(#aB)"/><rect x="274.2" y="239.92" width="51.6" height="20.16" rx="3" fill="#FFFFFF" fill-opacity="0.94" stroke="#E2E8F0" stroke-width="0.8"/><text x="300" y="252.92" font-family="DejaVu Sans" font-size="12" fill="#003A6B" text-anchor="middle">browse</text><polyline points="660,186 660,210 1300,210 1300,398" fill="none" stroke="#0078D4" stroke-width="2" marker-end="url(#aB)"/><rect x="944.3" y="191.92" width="71.4" height="20.16" rx="3" fill="#FFFFFF" fill-opacity="0.94" stroke="#E2E8F0" stroke-width="0.8"/><text x="980" y="204.92" font-family="DejaVu Sans" font-size="12" fill="#003A6B" text-anchor="middle">HTTPS 443</text><polyline points="1230,186 1230,230 1360,230 1360,398" fill="none" stroke="#0078D4" stroke-width="2" marker-end="url(#aB)"/><rect x="1264.3" y="213.92" width="71.4" height="20.16" rx="3" fill="#FFFFFF" fill-opacity="0.94" stroke="#E2E8F0" stroke-width="0.8"/><text x="1300" y="226.92" font-family="DejaVu Sans" font-size="12" fill="#003A6B" text-anchor="middle">HTTPS 443</text><polyline points="1150,178 700,178 660,300" fill="none" stroke="#0078D4" stroke-width="2" marker-end="url(#aB)"/><rect x="841.2" y="159.92" width="117.60000000000001" height="20.16" rx="3" fill="#FFFFFF" fill-opacity="0.94" stroke="#E2E8F0" stroke-width="0.8"/><text x="900" y="172.92" font-family="DejaVu Sans" font-size="12" fill="#003A6B" text-anchor="middle">dashboard ?code=</text><polyline points="1190,859 1120,859 1120,621 802,621" fill="none" stroke="#00A2A6" stroke-width="2" marker-end="url(#aT)"/><rect x="1054.6" y="702.84" width="130.8" height="34.32" rx="3" fill="#FFFFFF" fill-opacity="0.94" stroke="#E2E8F0" stroke-width="0.8"/><text x="1120" y="715.84" font-family="DejaVu Sans" font-size="12" fill="#003A6B" text-anchor="middle">insights + session</text><text x="1120" y="730" font-family="DejaVu Sans" font-size="12" fill="#003A6B" text-anchor="middle">managed identity</text><polyline points="679,588 679,470 900,470 912,374" fill="none" stroke="#00A2A6" stroke-width="2" marker-end="url(#aT)"/><rect x="754.4" y="455.92" width="91.2" height="20.16" rx="3" fill="#FFFFFF" fill-opacity="0.94" stroke="#E2E8F0" stroke-width="0.8"/><text x="800" y="468.92" font-family="DejaVu Sans" font-size="12" fill="#003A6B" text-anchor="middle">private link</text><polyline points="800,330 812,330" fill="none" stroke="#7A7A7A" stroke-width="2" marker-end="url(#aG)"/><text x="806" y="292" font-family="DejaVu Sans" font-size="11" fill="#7A7A7A" text-anchor="middle">read</text><polyline points="660,300 660,224 1420,224 1420,300" fill="none" stroke="#E8483B" stroke-width="2" marker-end="url(#aR)"/><rect x="938.4" y="207.92" width="223.20000000000002" height="20.16" rx="3" fill="#FFFFFF" fill-opacity="0.94" stroke="#E2E8F0" stroke-width="0.8"/><text x="1050" y="220.92" font-family="DejaVu Sans" font-size="12" fill="#003A6B" text-anchor="middle">hard-delete idle/closed VM (ARM)</text><polyline points="700,429 710,429" fill="none" stroke="#7A7A7A" stroke-width="2" stroke-dasharray="7 5" marker-end="url(#aG)"/><polyline points="895,429 905,429" fill="none" stroke="#7A7A7A" stroke-width="2" stroke-dasharray="7 5" marker-end="url(#aG)"/><text x="800" y="382" font-family="DejaVu Sans" font-size="10.5" fill="#7A7A7A" text-anchor="middle">CMK</text><polyline points="1080,420 1120,420 1120,340 1162,340" fill="none" stroke="#7A7A7A" stroke-width="2" stroke-dasharray="7 5" marker-end="url(#aG)"/><rect x="1082" y="370.84" width="78" height="34.32" rx="3" fill="#FFFFFF" fill-opacity="0.94" stroke="#E2E8F0" stroke-width="0.8"/><text x="1121" y="383.84" font-family="DejaVu Sans" font-size="12" fill="#003A6B" text-anchor="middle">spawn from</text><text x="1121" y="398" font-family="DejaVu Sans" font-size="12" fill="#003A6B" text-anchor="middle">gold image</text><polyline points="800,470 800,486" fill="none" stroke="#7A7A7A" stroke-width="2" stroke-dasharray="7 5" marker-end="url(#aG)"/><polyline points="1162,430 1100,430 1100,405 442,405" fill="none" stroke="#7A7A7A" stroke-width="2" stroke-dasharray="7 5" marker-end="url(#aG)"/><rect x="717.9" y="387.92" width="124.2" height="20.16" rx="3" fill="#FFFFFF" fill-opacity="0.94" stroke="#E2E8F0" stroke-width="0.8"/><text x="780" y="400.92" font-family="DejaVu Sans" font-size="12" fill="#003A6B" text-anchor="middle">send verification</text><polyline points="260,438 260,566" fill="none" stroke="#7A7A7A" stroke-width="2" stroke-dasharray="7 5" marker-end="url(#aG)"/><rect x="262.5" y="489.92" width="45" height="20.16" rx="3" fill="#FFFFFF" fill-opacity="0.94" stroke="#E2E8F0" stroke-width="0.8"/><text x="285" y="502.92" font-family="DejaVu Sans" font-size="12" fill="#003A6B" text-anchor="middle">email</text><rect x="500" y="1062" width="600" height="34" rx="6" fill="#FFFFFF" stroke="#D5DFEA"/><line x1="512" y1="1079" x2="538" y2="1079" stroke="#0078D4" stroke-width="2.4" marker-end="url(#aB)"/><text x="544" y="1083" font-family="DejaVu Sans" font-size="11.5" fill="#003A6B">HTTPS / user traffic</text><line x1="690" y1="1079" x2="716" y2="1079" stroke="#00A2A6" stroke-width="2.4" marker-end="url(#aT)"/><text x="722" y="1083" font-family="DejaVu Sans" font-size="11.5" fill="#003A6B">data (keyless / private link)</text><line x1="940" y1="1079" x2="966" y2="1079" stroke="#E8483B" stroke-width="2.4" marker-end="url(#aR)"/><text x="972" y="1083" font-family="DejaVu Sans" font-size="11.5" fill="#003A6B">control-plane teardown</text><text x="512" y="1112" font-family="DejaVu Sans" font-size="11" fill="#7A7A7A">Dashed = provisioning / encryption (CMK) / identity.  Azure-styled icons.  Ingress via Caddy TLS on the VM (no Azure Load Balancer).</text></svg>